<?xml version="1.0" encoding="UTF-8" standalone="no"?>
<svg xmlns="http://www.w3.org/2000/svg" width="796" height="716" viewBox="0 0 796 716" version="1.1">
  <title>Эгида logo vectorized</title>
  <g fill="#1230E6" fill-rule="evenodd" stroke="none">
    <path d="M 427.00 684.50 L 355.00 684.50 L 354.00 682.50 L 333.00 682.50 L 328.00 678.50 L 314.00 678.50 L 312.00 675.50 L 301.00 675.50 L 297.00 671.50 L 290.00 671.50 L 287.00 668.50 L 278.00 667.50 L 276.00 664.50 L 269.00 664.50 L 258.00 657.50 L 251.00 657.50 L 248.00 654.50 L 243.00 653.50 L 241.00 650.50 L 237.00 650.50 L 234.00 647.50 L 230.00 646.50 L 223.00 639.50 L 212.00 636.50 L 205.00 629.50 L 202.00 629.50 L 195.00 622.50 L 187.00 618.50 L 176.00 607.50 L 173.00 607.50 L 168.00 603.50 L 132.50 568.00 L 131.50 563.00 L 118.50 551.00 L 118.50 547.00 L 111.50 540.00 L 110.50 535.00 L 104.50 530.00 L 103.50 525.00 L 100.50 522.00 L 100.50 518.00 L 93.50 511.00 L 93.50 508.00 L 89.50 504.00 L 89.50 500.00 L 86.50 498.00 L 86.50 494.00 L 82.50 489.00 L 82.50 483.00 L 79.50 480.00 L 79.50 476.00 L 75.50 473.00 L 75.50 465.00 L 71.50 460.00 L 72.50 455.00 L 68.50 452.00 L 68.50 444.00 L 64.50 440.00 L 65.50 431.00 L 61.50 427.00 L 61.50 413.00 L 57.50 408.00 L 57.50 386.00 L 55.50 383.00 L 55.50 322.00 L 57.50 321.00 L 57.50 300.00 L 61.50 295.00 L 61.50 282.00 L 65.50 277.00 L 64.50 271.00 L 68.50 264.00 L 68.50 256.00 L 72.50 253.00 L 71.50 248.00 L 75.50 243.00 L 75.50 239.00 L 79.50 235.00 L 78.50 230.00 L 82.50 225.00 L 82.50 222.00 L 85.50 219.00 L 86.50 214.00 L 89.50 211.00 L 89.50 208.00 L 92.50 205.00 L 97.50 192.00 L 100.50 190.00 L 103.50 183.00 L 107.50 179.00 L 107.50 175.00 L 114.50 169.00 L 114.50 165.00 L 125.50 154.00 L 125.50 150.00 L 158.00 117.50 L 180.00 96.50 L 188.00 92.50 L 193.00 86.50 L 201.00 82.50 L 208.00 75.50 L 219.00 71.50 L 225.00 65.50 L 230.00 64.50 L 233.00 61.50 L 238.00 60.50 L 240.00 57.50 L 244.00 57.50 L 261.00 47.50 L 269.00 46.50 L 272.00 43.50 L 277.00 43.50 L 292.00 36.50 L 300.00 36.50 L 305.00 32.50 L 315.00 32.50 L 318.00 29.50 L 332.00 29.50 L 336.00 25.50 L 358.00 25.50 L 359.00 23.50 L 430.00 23.50 L 432.00 25.50 L 453.00 25.50 L 458.00 29.50 L 472.00 29.50 L 476.00 33.50 L 484.00 32.50 L 489.00 36.50 L 496.00 36.50 L 499.00 39.50 L 506.00 39.50 L 510.00 43.50 L 518.00 43.50 L 520.00 46.50 L 525.00 47.50 L 528.00 50.50 L 534.00 50.50 L 537.00 53.50 L 541.00 53.50 L 545.00 57.50 L 549.00 57.50 L 570.00 71.50 L 574.00 71.50 L 581.00 78.50 L 584.00 78.50 L 591.00 85.50 L 599.00 89.50 L 609.00 99.50 L 612.00 99.50 L 617.00 103.50 L 653.50 140.00 L 654.50 145.00 L 667.50 157.00 L 668.50 163.00 L 675.50 169.00 L 675.50 173.00 L 681.50 178.00 L 686.50 191.00 L 692.50 196.00 L 692.50 200.00 L 696.50 204.00 L 696.50 208.00 L 699.50 210.00 L 699.50 214.00 L 703.50 218.00 L 703.50 225.00 L 710.50 236.00 L 710.50 243.00 L 714.50 248.00 L 713.50 252.00 L 717.50 256.00 L 717.50 264.00 L 721.50 268.00 L 720.50 277.00 L 724.50 281.00 L 724.50 295.00 L 728.50 300.00 L 728.50 321.00 L 730.50 322.00 L 730.50 386.00 L 728.50 388.00 L 728.50 408.00 L 724.50 413.00 L 724.50 427.00 L 721.50 430.00 L 720.50 441.00 L 717.50 444.00 L 717.50 452.00 L 713.50 456.00 L 714.50 460.00 L 710.50 465.00 L 710.50 469.00 L 707.50 473.00 L 706.50 480.00 L 703.50 483.00 L 703.50 487.00 L 699.50 490.00 L 699.50 494.00 L 696.50 496.00 L 696.50 500.00 L 692.50 504.00 L 692.50 508.00 L 689.50 510.00 L 688.50 516.00 L 685.50 518.00 L 684.50 522.00 L 678.50 529.00 L 678.50 533.00 L 671.50 539.00 L 671.50 543.00 L 664.50 549.00 L 660.50 554.00 L 660.50 557.00 L 639.50 578.00 L 635.50 584.00 L 610.00 607.50 L 608.00 607.50 L 606.00 611.50 L 601.00 615.50 L 598.00 615.50 L 593.00 621.50 L 588.00 625.50 L 585.00 625.50 L 578.00 632.50 L 573.00 633.50 L 563.00 639.50 L 560.00 643.50 L 556.00 643.50 L 553.00 646.50 L 548.00 647.50 L 547.00 649.50 L 542.00 650.50 L 523.00 661.50 L 517.00 661.50 L 506.00 667.50 L 498.00 668.50 L 495.00 671.50 L 486.00 671.50 L 482.00 675.50 L 471.00 675.50 L 468.00 678.50 L 455.00 678.50 L 449.00 682.50 L 436.00 681.50 L 429.00 682.50 L 427.00 684.50 Z M 426.50 676.00 L 435.00 672.50 L 452.00 672.50 L 455.00 669.50 L 468.00 669.50 L 473.00 665.50 L 485.00 665.50 L 487.00 662.50 L 495.00 662.50 L 499.00 658.50 L 506.00 658.50 L 508.00 655.50 L 513.00 655.50 L 518.00 651.50 L 524.00 651.50 L 526.00 648.50 L 531.00 647.50 L 534.00 644.50 L 538.00 644.50 L 540.00 641.50 L 545.00 640.50 L 548.00 637.50 L 552.00 637.50 L 554.00 634.50 L 559.00 633.50 L 565.00 627.50 L 569.00 627.50 L 576.00 620.50 L 581.00 619.50 L 586.00 613.50 L 591.00 612.50 L 601.00 602.50 L 604.00 602.50 L 608.00 599.50 L 648.50 559.00 L 651.50 552.00 L 662.50 541.00 L 662.50 537.00 L 669.50 531.00 L 669.50 527.00 L 676.50 520.00 L 676.50 516.00 L 679.50 514.00 L 679.50 510.00 L 683.50 506.00 L 683.50 502.00 L 687.50 499.00 L 690.50 488.00 L 693.50 486.00 L 694.50 481.00 L 697.50 479.00 L 697.50 474.00 L 701.50 471.00 L 701.50 463.00 L 704.50 461.00 L 704.50 454.00 L 708.50 450.00 L 708.50 442.00 L 711.50 440.00 L 711.50 432.00 L 715.50 426.00 L 714.50 416.00 L 718.50 411.00 L 718.50 392.00 L 722.50 387.00 L 722.50 321.00 L 718.50 315.00 L 718.50 296.00 L 715.50 294.00 L 715.50 282.00 L 711.50 277.00 L 711.50 268.00 L 708.50 266.00 L 708.50 258.00 L 704.50 255.00 L 704.50 247.00 L 700.50 242.00 L 701.50 237.00 L 697.50 234.00 L 697.50 230.00 L 690.50 219.00 L 690.50 215.00 L 687.50 212.00 L 687.50 209.00 L 679.50 198.00 L 679.50 194.00 L 677.50 193.00 L 676.50 188.00 L 669.50 181.00 L 669.50 177.00 L 662.50 171.00 L 662.50 167.00 L 651.50 156.00 L 651.50 152.00 L 605.00 105.50 L 597.00 101.50 L 587.00 91.50 L 583.00 91.50 L 576.00 84.50 L 573.00 84.50 L 566.00 77.50 L 562.00 77.50 L 559.00 74.50 L 554.00 73.50 L 552.00 70.50 L 549.00 70.50 L 546.00 67.50 L 540.00 65.50 L 539.00 63.50 L 534.00 63.50 L 530.00 59.50 L 526.00 59.50 L 515.00 52.50 L 511.00 53.50 L 506.00 49.50 L 498.00 49.50 L 495.00 45.50 L 487.00 45.50 L 485.00 42.50 L 475.00 42.50 L 470.00 38.50 L 459.00 38.50 L 456.00 35.50 L 438.00 35.50 L 433.00 31.50 L 355.00 31.50 L 349.00 35.50 L 330.00 35.50 L 327.00 38.50 L 317.00 38.50 L 312.00 42.50 L 301.00 42.50 L 299.00 45.50 L 291.00 45.50 L 287.00 49.50 L 280.00 49.50 L 269.00 56.50 L 262.00 56.50 L 260.00 59.50 L 256.00 59.50 L 252.00 63.50 L 248.00 63.50 L 246.00 66.50 L 241.00 67.50 L 238.00 70.50 L 234.00 70.50 L 232.00 73.50 L 227.00 74.50 L 221.00 80.50 L 216.00 81.50 L 210.00 87.50 L 205.00 88.50 L 200.00 94.50 L 195.00 95.50 L 185.00 105.50 L 177.00 109.50 L 137.50 149.00 L 137.50 152.00 L 123.50 167.00 L 123.50 171.00 L 116.50 177.00 L 116.50 181.00 L 109.50 188.00 L 109.50 191.00 L 102.50 202.00 L 102.50 206.00 L 99.50 208.00 L 98.50 213.00 L 95.50 216.00 L 95.50 220.00 L 92.50 222.00 L 91.50 227.00 L 84.50 238.00 L 85.50 242.00 L 81.50 247.00 L 81.50 255.00 L 77.50 258.00 L 77.50 266.00 L 74.50 268.00 L 74.50 278.00 L 70.50 283.00 L 70.50 294.00 L 67.50 298.00 L 67.50 317.00 L 63.50 321.00 L 63.50 387.00 L 67.50 393.00 L 67.50 412.00 L 70.50 414.00 L 70.50 425.00 L 74.50 431.00 L 74.50 440.00 L 77.50 442.00 L 77.50 450.00 L 81.50 454.00 L 81.50 461.00 L 84.50 463.00 L 84.50 471.00 L 88.50 474.00 L 88.50 479.00 L 91.50 481.00 L 91.50 485.00 L 95.50 489.00 L 95.50 493.00 L 98.50 496.00 L 98.50 499.00 L 106.50 510.00 L 106.50 514.00 L 109.50 516.00 L 109.50 520.00 L 116.50 527.00 L 116.50 531.00 L 123.50 537.00 L 123.50 541.00 L 134.50 552.00 L 135.50 557.00 L 184.00 605.50 L 189.00 606.50 L 199.00 616.50 L 204.00 617.50 L 210.00 623.50 L 214.00 623.50 L 220.00 630.50 L 224.00 630.50 L 234.00 637.50 L 237.00 637.50 L 248.00 644.50 L 252.00 644.50 L 255.00 647.50 L 260.00 648.50 L 262.00 651.50 L 266.00 651.50 L 270.00 655.50 L 278.00 655.50 L 280.00 658.50 L 287.00 658.50 L 292.00 662.50 L 299.00 662.50 L 301.00 665.50 L 311.00 665.50 L 316.00 669.50 L 327.00 669.50 L 330.00 672.50 L 355.00 672.50 L 361.00 676.50 L 426.50 676.00 Z M 421.00 668.50 L 375.00 668.50 L 372.50 666.00 L 372.50 643.00 L 377.00 640.50 L 396.00 641.50 L 397.50 640.00 L 397.00 633.50 L 380.00 633.50 L 375.00 632.50 L 372.00 629.50 L 365.00 629.50 L 364.50 651.00 L 360.50 656.00 L 360.50 667.00 L 356.00 668.50 L 352.00 665.50 L 347.00 664.50 L 333.00 664.50 L 330.00 661.50 L 316.00 661.50 L 311.00 657.50 L 303.00 657.50 L 301.50 655.00 L 305.50 650.00 L 305.50 643.00 L 308.50 640.00 L 308.50 633.00 L 311.00 630.50 L 316.00 633.50 L 325.00 633.50 L 332.00 637.50 L 336.00 637.50 L 338.50 628.00 L 337.00 625.50 L 328.00 625.50 L 324.00 622.50 L 315.00 622.50 L 312.00 619.50 L 306.00 618.50 L 300.50 624.00 L 300.50 631.00 L 296.50 635.00 L 297.50 640.00 L 293.50 645.00 L 293.50 649.00 L 291.00 651.50 L 282.00 650.50 L 279.00 647.50 L 271.00 646.50 L 269.00 643.50 L 264.00 643.50 L 261.00 640.50 L 254.00 639.50 L 251.00 636.50 L 240.00 632.50 L 237.50 629.00 L 238.50 622.00 L 250.00 606.50 L 253.00 606.50 L 263.00 613.50 L 267.00 613.50 L 269.00 616.50 L 272.00 616.50 L 277.50 611.00 L 272.00 604.50 L 268.00 604.50 L 266.00 601.50 L 262.00 601.50 L 258.00 597.50 L 254.00 597.50 L 251.00 594.50 L 245.00 594.50 L 243.50 600.00 L 237.50 605.00 L 236.50 611.00 L 233.50 613.00 L 233.50 617.00 L 229.00 621.50 L 223.00 622.50 L 216.00 615.50 L 212.00 615.50 L 205.00 608.50 L 201.00 607.50 L 191.00 597.50 L 187.00 597.50 L 178.50 589.00 L 178.50 586.00 L 195.00 570.50 L 199.00 570.50 L 210.00 581.50 L 214.00 581.50 L 215.00 583.50 L 217.00 583.50 L 222.50 578.00 L 222.50 576.00 L 212.00 569.50 L 197.00 553.50 L 194.00 553.50 L 171.00 576.50 L 166.00 576.50 L 143.50 554.00 L 142.50 549.00 L 132.50 540.00 L 128.50 534.00 L 128.50 530.00 L 138.00 521.50 L 142.00 521.50 L 144.00 518.50 L 149.00 517.50 L 158.50 527.00 L 158.50 530.00 L 166.00 538.50 L 173.50 531.00 L 167.50 525.00 L 167.50 522.00 L 157.50 511.00 L 157.50 508.00 L 153.50 505.00 L 153.50 502.00 L 151.00 499.50 L 149.00 499.50 L 145.00 503.50 L 142.00 503.50 L 135.00 509.50 L 132.00 509.50 L 129.00 513.50 L 125.00 513.50 L 122.00 516.50 L 120.00 516.50 L 111.50 509.00 L 111.50 505.00 L 107.50 501.00 L 107.50 497.00 L 104.50 495.00 L 103.50 490.00 L 100.50 487.00 L 100.50 483.00 L 96.50 479.00 L 96.50 472.00 L 93.50 470.00 L 93.50 466.00 L 90.50 463.00 L 90.50 460.00 L 92.00 458.50 L 99.00 458.50 L 103.00 454.50 L 110.00 454.50 L 112.00 451.50 L 115.00 451.50 L 116.50 457.00 L 120.50 461.00 L 120.50 466.00 L 123.50 470.00 L 123.50 473.00 L 127.00 477.50 L 135.50 475.00 L 135.50 468.00 L 132.50 466.00 L 132.50 462.00 L 128.50 459.00 L 128.50 452.00 L 125.50 449.00 L 125.50 445.00 L 121.50 441.00 L 121.00 436.50 L 117.00 436.50 L 115.00 439.50 L 106.00 439.50 L 100.00 443.50 L 93.00 443.50 L 90.00 446.50 L 85.50 444.00 L 82.50 439.00 L 82.50 430.00 L 79.50 428.00 L 78.50 424.00 L 79.50 416.00 L 75.50 410.00 L 75.50 391.00 L 71.50 385.00 L 71.50 381.00 L 74.00 377.50 L 97.00 377.50 L 99.50 380.00 L 99.50 391.00 L 102.50 394.00 L 102.50 408.00 L 106.00 408.50 L 109.00 405.50 L 114.50 405.00 L 114.50 401.00 L 110.50 395.00 L 110.50 367.00 L 107.50 360.00 L 106.00 358.50 L 74.00 358.50 L 71.50 355.00 L 71.50 325.00 L 75.50 317.00 L 75.50 301.00 L 78.00 297.50 L 82.00 296.50 L 86.00 299.50 L 101.00 300.50 L 102.50 302.00 L 102.50 319.00 L 99.50 322.00 L 99.50 327.00 L 101.00 328.50 L 107.00 328.50 L 111.50 326.00 L 110.50 317.00 L 114.50 310.00 L 114.50 296.00 L 116.50 292.00 L 109.00 291.50 L 106.00 288.50 L 94.00 288.50 L 88.00 284.50 L 81.00 284.50 L 79.50 281.00 L 82.50 278.00 L 82.50 270.00 L 85.50 267.00 L 86.50 257.00 L 89.50 254.00 L 89.50 250.00 L 93.50 243.00 L 93.50 238.00 L 96.50 236.00 L 96.50 231.00 L 99.00 227.50 L 110.00 229.50 L 123.50 238.00 L 114.50 261.00 L 118.00 261.50 L 121.00 264.50 L 125.50 263.00 L 124.50 258.00 L 135.50 239.00 L 136.50 231.00 L 134.00 228.50 L 129.00 227.50 L 128.00 225.50 L 124.00 225.50 L 119.00 221.50 L 114.00 221.50 L 110.00 218.50 L 107.50 216.00 L 107.50 207.00 L 113.50 201.00 L 118.50 192.00 L 118.50 189.00 L 124.50 184.00 L 125.50 178.00 L 132.50 172.00 L 132.50 168.00 L 141.00 159.50 L 143.00 159.50 L 153.00 169.50 L 158.00 170.50 L 161.50 175.00 L 152.50 191.00 L 144.50 198.00 L 146.00 201.50 L 150.00 201.50 L 152.00 204.50 L 160.50 197.00 L 160.50 193.00 L 167.50 187.00 L 171.50 182.00 L 171.50 178.00 L 177.50 173.00 L 176.00 169.50 L 174.00 169.50 L 154.50 151.00 L 153.50 144.00 L 173.00 124.50 L 181.00 120.50 L 193.00 107.50 L 198.00 104.50 L 204.00 107.50 L 211.50 115.00 L 212.50 120.00 L 215.50 122.00 L 215.50 125.00 L 207.00 133.50 L 203.00 133.50 L 195.50 142.00 L 201.00 147.50 L 203.00 147.50 L 209.00 141.50 L 216.00 138.50 L 222.00 131.50 L 227.00 127.50 L 230.00 127.50 L 233.50 123.00 L 228.50 119.00 L 226.50 113.00 L 217.50 104.00 L 216.50 99.00 L 213.50 97.00 L 213.50 94.00 L 219.00 89.50 L 223.00 89.50 L 229.00 82.50 L 232.00 82.50 L 237.00 78.50 L 241.00 78.50 L 243.00 75.50 L 246.00 75.50 L 251.00 71.50 L 255.00 71.50 L 265.00 64.50 L 270.00 64.50 L 275.50 70.00 L 275.50 74.00 L 279.50 78.00 L 279.50 85.00 L 274.00 91.50 L 270.00 91.50 L 259.00 98.50 L 254.50 99.00 L 258.00 108.50 L 266.00 106.50 L 268.00 103.50 L 272.00 103.50 L 276.00 99.50 L 280.00 99.50 L 282.00 96.50 L 287.00 95.50 L 290.00 92.50 L 296.00 92.50 L 294.50 82.00 L 291.50 79.00 L 291.50 75.00 L 287.50 71.00 L 287.50 64.00 L 284.50 62.00 L 284.50 58.00 L 291.00 53.50 L 301.00 53.50 L 304.00 50.50 L 314.00 50.50 L 319.00 46.50 L 326.00 47.50 L 332.00 43.50 L 341.00 43.50 L 343.50 47.00 L 342.50 52.00 L 346.50 56.00 L 346.50 65.00 L 340.00 70.50 L 330.00 70.50 L 327.00 73.50 L 322.00 74.50 L 321.50 78.00 L 327.00 82.50 L 334.00 81.50 L 338.00 78.50 L 354.00 78.50 L 358.50 74.00 L 358.50 58.00 L 354.50 54.00 L 354.50 42.00 L 357.00 39.50 L 375.00 39.50 L 381.00 36.50 L 404.00 36.50 L 413.50 42.00 L 412.50 64.00 L 410.00 65.50 L 390.00 65.50 L 388.50 68.00 L 388.50 74.00 L 390.00 75.50 L 416.00 75.50 L 421.00 78.50 L 421.50 61.00 L 425.50 57.00 L 425.50 42.00 L 428.00 39.50 L 434.00 39.50 L 439.00 43.50 L 454.00 43.50 L 457.00 46.50 L 466.00 46.50 L 474.00 50.50 L 482.00 50.50 L 484.50 53.00 L 480.50 58.00 L 480.50 65.00 L 477.50 68.00 L 477.50 76.00 L 476.00 77.50 L 473.00 77.50 L 469.00 73.50 L 457.00 73.50 L 453.00 70.50 L 450.00 70.50 L 448.50 72.00 L 449.50 76.00 L 448.00 81.50 L 455.00 81.50 L 461.00 85.50 L 471.00 85.50 L 476.00 89.50 L 481.00 89.50 L 485.50 85.00 L 485.50 77.00 L 489.50 73.00 L 488.50 68.00 L 492.50 63.00 L 493.50 58.00 L 495.00 56.50 L 504.00 57.50 L 508.00 60.50 L 513.00 60.50 L 517.00 64.50 L 532.00 68.50 L 534.00 71.50 L 538.00 71.50 L 543.00 75.50 L 547.00 75.50 L 548.50 79.00 L 547.50 87.00 L 544.50 89.00 L 543.50 93.00 L 536.00 101.50 L 533.00 101.50 L 517.00 91.50 L 513.00 91.50 L 508.50 96.00 L 508.50 98.00 L 513.00 102.50 L 518.00 103.50 L 520.00 106.50 L 524.00 106.50 L 528.00 110.50 L 532.00 110.50 L 534.00 113.50 L 541.00 113.50 L 542.50 108.00 L 549.50 102.00 L 549.50 98.00 L 552.50 95.00 L 553.50 90.00 L 558.00 85.50 L 563.00 85.50 L 570.00 92.50 L 575.00 93.50 L 580.00 99.50 L 584.00 99.50 L 594.00 109.50 L 599.00 110.50 L 607.00 117.50 L 607.50 122.00 L 591.00 137.50 L 587.00 137.50 L 576.00 126.50 L 573.00 126.50 L 571.00 124.50 L 565.00 127.50 L 563.50 131.00 L 567.00 131.50 L 588.00 152.50 L 594.00 152.50 L 615.00 131.50 L 620.00 131.50 L 642.50 153.00 L 643.50 159.00 L 656.50 172.00 L 657.50 181.00 L 644.00 189.50 L 641.00 193.50 L 636.00 193.50 L 634.50 192.00 L 634.50 188.00 L 626.50 180.00 L 626.50 177.00 L 622.00 172.50 L 616.00 172.50 L 612.50 177.00 L 625.50 193.00 L 626.50 198.00 L 632.50 203.00 L 632.50 207.00 L 637.00 209.50 L 639.00 209.50 L 643.00 205.50 L 648.00 204.50 L 650.00 201.50 L 654.00 201.50 L 663.00 194.50 L 671.50 196.00 L 671.50 201.00 L 675.50 204.00 L 675.50 208.00 L 678.50 210.00 L 682.50 222.00 L 685.50 224.00 L 685.50 229.00 L 689.50 232.00 L 689.50 236.00 L 692.50 238.00 L 692.50 246.00 L 696.50 251.00 L 694.00 253.50 L 686.00 253.50 L 684.00 256.50 L 677.00 256.50 L 672.00 260.50 L 669.50 259.00 L 669.50 254.00 L 665.50 251.00 L 665.50 244.00 L 662.50 241.00 L 661.00 235.50 L 655.00 235.50 L 651.50 239.00 L 654.50 245.00 L 654.50 250.00 L 661.50 262.00 L 660.50 266.00 L 664.50 270.00 L 665.00 275.50 L 669.00 275.50 L 673.00 271.50 L 682.00 271.50 L 686.00 268.50 L 693.00 268.50 L 695.00 265.50 L 699.00 265.50 L 703.50 273.00 L 703.50 281.00 L 707.50 286.00 L 707.50 300.00 L 710.50 303.00 L 710.50 329.00 L 709.00 330.50 L 689.00 330.50 L 683.50 325.00 L 683.50 307.00 L 679.00 302.50 L 673.00 302.50 L 671.50 304.00 L 671.50 313.00 L 675.50 318.00 L 675.50 343.00 L 678.50 347.00 L 679.00 352.50 L 711.00 352.50 L 714.50 356.00 L 714.50 387.00 L 710.50 391.00 L 710.50 410.00 L 707.50 413.00 L 706.50 417.00 L 705.00 418.50 L 697.00 418.50 L 694.00 415.50 L 683.00 415.50 L 680.50 414.00 L 679.50 412.00 L 683.50 408.00 L 683.50 390.00 L 685.50 388.00 L 683.00 383.50 L 675.50 384.00 L 675.50 395.00 L 671.50 399.00 L 671.50 413.00 L 668.50 416.00 L 668.50 424.00 L 672.00 426.50 L 680.00 426.50 L 683.00 429.50 L 687.00 430.50 L 695.00 430.50 L 697.00 433.50 L 702.00 433.50 L 703.50 436.00 L 703.50 438.00 L 699.50 442.00 L 699.50 449.00 L 696.50 452.00 L 696.50 459.00 L 692.50 462.00 L 692.50 470.00 L 689.50 472.00 L 689.50 476.00 L 685.50 480.00 L 685.50 484.00 L 682.50 486.00 L 680.00 492.50 L 672.00 492.50 L 669.00 489.50 L 664.00 488.50 L 662.00 485.50 L 657.00 485.50 L 655.50 484.00 L 655.50 480.00 L 658.50 479.00 L 658.50 475.00 L 662.50 471.00 L 662.50 467.00 L 665.50 465.00 L 665.50 458.00 L 658.00 453.50 L 653.50 462.00 L 653.50 466.00 L 650.50 468.00 L 650.50 472.00 L 646.50 476.00 L 646.50 480.00 L 643.50 482.00 L 643.50 486.00 L 640.50 489.00 L 644.00 493.50 L 648.00 493.50 L 651.00 496.50 L 656.00 497.50 L 658.00 500.50 L 662.00 500.50 L 665.00 503.50 L 669.00 504.50 L 671.50 507.00 L 671.50 512.00 L 664.50 518.00 L 664.50 522.00 L 650.50 539.00 L 650.50 543.00 L 633.00 559.50 L 621.00 551.50 L 615.50 544.00 L 619.50 538.00 L 620.50 533.00 L 630.50 524.00 L 630.00 517.50 L 622.00 517.50 L 611.50 528.00 L 607.50 537.00 L 598.50 545.00 L 621.50 568.00 L 621.50 575.00 L 609.00 587.50 L 602.00 590.50 L 591.00 601.50 L 583.00 605.50 L 578.00 611.50 L 572.00 611.50 L 566.50 606.00 L 566.50 602.00 L 560.50 597.00 L 559.50 590.00 L 565.00 585.50 L 570.00 584.50 L 581.50 573.00 L 581.50 571.00 L 577.00 566.50 L 573.00 566.50 L 549.00 587.50 L 543.50 589.00 L 547.50 593.00 L 548.50 598.00 L 554.50 604.00 L 555.50 609.00 L 561.50 614.00 L 561.50 621.00 L 535.00 636.50 L 524.00 639.50 L 521.00 643.50 L 517.00 643.50 L 513.00 647.50 L 506.50 645.00 L 506.50 641.00 L 503.50 638.00 L 503.50 634.00 L 499.50 628.00 L 499.50 622.00 L 524.00 612.50 L 524.50 609.00 L 520.50 604.00 L 513.00 605.50 L 510.00 608.50 L 503.00 608.50 L 500.00 611.50 L 496.00 611.50 L 492.00 615.50 L 487.00 615.50 L 487.50 625.00 L 491.50 629.00 L 491.50 637.00 L 495.50 641.00 L 495.50 651.00 L 494.00 653.50 L 485.00 654.50 L 482.00 657.50 L 471.00 657.50 L 467.00 661.50 L 456.00 661.50 L 452.00 664.50 L 443.00 664.50 L 439.50 662.00 L 439.50 644.00 L 436.50 642.00 L 436.50 639.00 L 438.00 637.50 L 453.00 637.50 L 458.00 633.50 L 462.00 633.50 L 460.50 626.00 L 442.00 625.50 L 436.00 629.50 L 425.00 629.50 L 424.50 637.00 L 427.50 639.00 L 427.50 666.00 L 421.00 668.50 Z M 407.50 661.00 L 418.50 657.00 L 418.50 622.00 L 422.00 619.50 L 439.00 619.50 L 442.00 616.50 L 459.00 616.50 L 462.00 613.50 L 466.00 613.50 L 466.50 622.00 L 470.50 626.00 L 470.50 633.00 L 473.50 636.00 L 473.50 639.00 L 467.00 640.50 L 464.00 643.50 L 451.00 643.50 L 448.50 648.00 L 448.50 654.00 L 450.00 655.50 L 457.00 655.50 L 463.00 651.50 L 474.00 651.50 L 477.00 648.50 L 485.00 647.50 L 485.50 638.00 L 481.50 633.00 L 481.50 626.00 L 478.50 624.00 L 478.50 616.00 L 475.50 612.00 L 478.00 609.50 L 483.00 609.50 L 486.00 606.50 L 492.00 605.50 L 495.00 602.50 L 501.00 602.50 L 506.00 598.50 L 510.00 598.50 L 512.00 595.50 L 516.00 595.50 L 521.00 591.50 L 524.00 591.50 L 526.50 594.00 L 526.50 598.00 L 529.50 600.00 L 530.50 605.00 L 533.50 608.00 L 533.50 615.00 L 530.00 618.50 L 524.00 619.50 L 521.00 622.50 L 517.00 622.50 L 514.00 625.50 L 510.00 626.50 L 509.50 629.00 L 514.00 634.50 L 516.00 634.50 L 522.00 633.50 L 526.00 630.50 L 530.00 630.50 L 533.00 627.50 L 538.00 626.50 L 549.50 619.00 L 549.50 613.00 L 545.50 610.00 L 545.50 606.00 L 539.50 596.00 L 535.50 593.00 L 534.50 588.00 L 541.00 581.50 L 549.00 577.50 L 554.00 571.50 L 559.00 570.50 L 573.00 556.50 L 577.00 555.50 L 593.50 572.00 L 593.50 575.00 L 581.00 586.50 L 576.00 587.50 L 570.50 596.00 L 577.00 601.50 L 583.00 595.50 L 586.00 595.50 L 611.50 571.00 L 610.50 568.00 L 587.50 545.00 L 591.50 538.00 L 609.50 521.00 L 612.50 517.00 L 613.50 512.00 L 621.00 504.50 L 626.00 504.50 L 633.00 510.50 L 638.00 511.50 L 643.50 517.00 L 642.50 523.00 L 632.50 532.00 L 632.50 535.00 L 627.50 541.00 L 628.50 545.00 L 632.00 548.50 L 634.00 548.50 L 638.50 544.00 L 641.50 537.00 L 648.50 531.00 L 651.50 527.00 L 651.50 524.00 L 661.50 511.00 L 661.00 509.50 L 657.00 509.50 L 654.00 506.50 L 649.00 505.50 L 646.00 501.50 L 640.00 499.50 L 636.00 495.50 L 630.50 494.00 L 630.50 488.00 L 633.50 486.00 L 634.50 480.00 L 637.50 479.00 L 637.50 474.00 L 640.50 472.00 L 641.50 467.00 L 644.50 464.00 L 644.50 460.00 L 648.50 457.00 L 648.50 450.00 L 653.00 444.50 L 657.00 443.50 L 662.00 447.50 L 669.00 447.50 L 673.00 451.50 L 678.50 453.00 L 678.50 456.00 L 675.50 458.00 L 674.50 463.00 L 671.50 465.00 L 671.50 471.00 L 667.50 476.00 L 667.50 478.00 L 672.00 482.50 L 676.00 482.50 L 679.50 476.00 L 679.50 472.00 L 683.50 468.00 L 683.50 464.00 L 686.50 461.00 L 686.50 455.00 L 690.50 450.00 L 690.50 443.00 L 692.50 441.00 L 692.00 439.50 L 685.00 439.50 L 683.00 436.50 L 676.00 436.50 L 671.00 432.50 L 662.00 432.50 L 658.50 429.00 L 658.50 418.00 L 662.50 414.00 L 661.50 407.00 L 665.50 401.00 L 665.50 380.00 L 672.00 373.50 L 677.00 373.50 L 683.00 377.50 L 691.00 377.50 L 692.50 379.00 L 693.50 389.00 L 692.50 402.00 L 690.50 405.00 L 696.00 409.50 L 699.00 409.50 L 701.50 407.00 L 700.50 399.00 L 704.50 394.00 L 704.00 362.50 L 672.00 362.50 L 669.50 361.00 L 669.50 340.00 L 665.50 332.00 L 665.50 313.00 L 662.50 309.00 L 662.50 298.00 L 671.00 296.50 L 674.00 293.50 L 688.00 293.50 L 689.50 295.00 L 689.50 307.00 L 692.50 310.00 L 692.50 320.00 L 694.00 321.50 L 703.00 321.50 L 703.50 320.00 L 700.50 315.00 L 700.50 296.00 L 697.50 293.00 L 697.50 282.00 L 694.50 280.00 L 694.50 277.00 L 684.00 277.50 L 679.00 281.50 L 669.00 281.50 L 664.00 285.50 L 661.00 284.50 L 655.50 280.00 L 655.50 272.00 L 651.50 267.00 L 651.50 261.00 L 647.50 257.00 L 648.50 252.00 L 644.50 248.00 L 644.50 244.00 L 640.50 239.00 L 641.50 235.00 L 647.00 229.50 L 651.00 229.50 L 654.00 226.50 L 663.00 223.50 L 668.50 229.00 L 668.50 233.00 L 671.50 235.00 L 671.50 243.00 L 676.00 247.50 L 682.00 247.50 L 683.50 246.00 L 683.50 240.00 L 679.50 236.00 L 679.50 230.00 L 676.50 227.00 L 676.50 223.00 L 672.50 219.00 L 672.50 215.00 L 669.50 213.00 L 668.50 208.00 L 663.00 204.50 L 656.00 210.50 L 651.00 211.50 L 648.00 214.50 L 644.00 214.50 L 642.00 217.50 L 637.00 218.50 L 635.00 221.50 L 632.00 221.50 L 630.50 216.00 L 623.50 209.00 L 623.50 205.00 L 616.50 199.00 L 616.50 195.00 L 605.50 184.00 L 602.50 178.00 L 602.50 171.00 L 613.00 165.50 L 618.00 159.50 L 621.00 159.50 L 635.50 174.00 L 638.00 180.50 L 645.50 176.00 L 641.50 167.00 L 630.50 157.00 L 630.50 154.00 L 626.50 148.00 L 620.00 141.50 L 618.00 141.50 L 591.00 165.50 L 577.00 151.50 L 569.00 147.50 L 559.00 137.50 L 555.00 137.50 L 552.50 135.00 L 552.50 130.00 L 556.50 127.00 L 560.50 122.00 L 560.50 119.00 L 566.00 113.50 L 570.00 113.50 L 574.00 117.50 L 578.00 117.50 L 587.00 127.50 L 591.00 127.50 L 595.50 123.00 L 595.50 121.00 L 584.00 109.50 L 580.00 109.50 L 570.00 99.50 L 562.00 95.50 L 558.50 100.00 L 557.50 105.00 L 551.50 110.00 L 551.50 114.00 L 547.50 118.00 L 544.50 125.00 L 540.00 126.50 L 538.00 123.50 L 533.00 122.50 L 531.00 119.50 L 527.00 119.50 L 512.00 109.50 L 505.00 108.50 L 499.50 103.00 L 499.50 95.00 L 503.50 91.00 L 503.50 87.00 L 506.50 85.00 L 506.50 80.00 L 508.00 78.50 L 518.00 82.50 L 520.00 85.50 L 525.00 85.50 L 527.00 88.50 L 532.00 89.50 L 533.00 91.50 L 535.50 91.00 L 535.50 87.00 L 538.50 85.00 L 538.50 82.00 L 533.00 80.50 L 531.00 77.50 L 527.00 77.50 L 516.00 70.50 L 510.00 70.50 L 507.00 67.50 L 498.50 68.00 L 498.50 75.00 L 494.50 79.00 L 494.50 86.00 L 491.50 88.00 L 491.50 93.00 L 486.00 98.50 L 477.00 98.50 L 474.00 95.50 L 465.00 94.50 L 463.00 91.50 L 449.00 91.50 L 439.50 86.00 L 439.50 70.00 L 442.50 67.00 L 443.50 62.00 L 450.00 61.50 L 453.00 64.50 L 466.00 64.50 L 471.00 67.50 L 471.50 58.00 L 470.00 56.50 L 464.00 56.50 L 460.00 53.50 L 448.00 53.50 L 442.00 49.50 L 436.00 49.50 L 434.50 51.00 L 434.50 62.00 L 431.50 65.00 L 431.50 82.00 L 429.00 84.50 L 382.00 84.50 L 379.50 83.00 L 379.50 59.00 L 381.00 57.50 L 406.00 57.50 L 407.50 56.00 L 407.50 47.00 L 406.00 45.50 L 372.00 45.50 L 367.50 47.00 L 367.50 77.00 L 370.50 80.00 L 369.00 84.50 L 358.00 84.50 L 352.00 88.50 L 341.00 87.50 L 337.00 91.50 L 326.00 91.50 L 323.00 93.50 L 318.00 92.50 L 315.50 89.00 L 315.50 82.00 L 312.50 79.00 L 312.50 70.00 L 318.00 64.50 L 329.00 64.50 L 332.00 61.50 L 335.00 61.50 L 337.50 57.00 L 334.00 53.50 L 329.00 53.50 L 326.00 56.50 L 315.00 56.50 L 312.00 59.50 L 302.00 59.50 L 298.50 63.00 L 300.50 67.00 L 300.50 74.00 L 303.50 76.00 L 304.50 82.00 L 307.50 85.00 L 307.50 92.00 L 310.50 95.00 L 310.00 97.50 L 302.00 98.50 L 297.00 102.50 L 294.00 101.50 L 290.00 105.50 L 284.00 105.50 L 280.00 109.50 L 276.00 109.50 L 275.00 111.50 L 262.00 116.50 L 260.00 119.50 L 254.00 119.50 L 252.50 118.00 L 252.50 114.00 L 248.50 111.00 L 248.50 106.00 L 241.50 100.00 L 241.50 98.00 L 248.00 92.50 L 251.00 92.50 L 254.00 89.50 L 258.00 89.50 L 262.00 85.50 L 266.00 85.50 L 269.50 81.00 L 269.50 78.00 L 267.00 75.50 L 259.00 77.50 L 256.00 80.50 L 251.00 81.50 L 249.00 84.50 L 245.00 84.50 L 242.00 87.50 L 237.00 88.50 L 235.00 91.50 L 231.00 91.50 L 226.50 96.00 L 226.50 99.00 L 229.50 102.00 L 229.50 105.00 L 236.50 112.00 L 237.50 117.00 L 243.50 123.00 L 243.50 129.00 L 238.00 130.50 L 231.00 137.50 L 224.00 140.50 L 210.00 154.50 L 206.00 155.50 L 203.00 158.50 L 197.00 157.50 L 184.50 144.00 L 184.50 141.00 L 202.50 124.00 L 202.50 120.00 L 199.00 116.50 L 195.00 116.50 L 165.50 146.00 L 187.50 168.00 L 187.50 175.00 L 170.50 194.00 L 169.50 199.00 L 162.50 205.00 L 162.50 210.00 L 157.00 214.50 L 150.00 213.50 L 149.00 211.50 L 144.00 210.50 L 142.00 207.50 L 137.00 207.50 L 135.50 206.00 L 135.50 197.00 L 142.50 190.00 L 142.50 186.00 L 148.50 181.00 L 148.50 179.00 L 143.00 173.50 L 138.50 176.00 L 137.50 182.00 L 130.50 188.00 L 130.50 192.00 L 123.50 198.00 L 123.50 203.00 L 120.50 205.00 L 118.50 210.00 L 119.00 212.50 L 122.00 212.50 L 124.00 215.50 L 129.00 215.50 L 132.00 219.50 L 136.00 219.50 L 139.00 222.50 L 144.00 223.50 L 148.50 228.00 L 148.50 233.00 L 145.50 236.00 L 140.50 249.00 L 137.50 251.00 L 137.50 256.00 L 134.50 259.00 L 134.50 265.00 L 130.50 269.00 L 130.50 273.00 L 128.00 274.50 L 124.00 274.50 L 119.00 270.50 L 110.00 270.50 L 106.00 267.50 L 103.50 264.00 L 107.50 260.00 L 107.50 253.00 L 111.50 249.00 L 111.50 242.00 L 110.00 239.50 L 103.00 239.50 L 102.50 244.00 L 95.50 256.00 L 95.50 262.00 L 91.50 270.00 L 93.00 278.50 L 105.00 279.50 L 108.00 282.50 L 118.00 282.50 L 121.00 285.50 L 126.50 287.00 L 126.50 291.00 L 123.50 294.00 L 123.50 307.00 L 120.50 310.00 L 120.50 329.00 L 115.00 337.50 L 91.00 337.50 L 89.50 332.00 L 93.50 327.00 L 93.50 311.00 L 89.00 306.50 L 86.00 306.50 L 84.50 308.00 L 84.50 317.00 L 81.50 320.00 L 82.00 349.50 L 115.00 349.50 L 116.50 351.00 L 116.50 375.00 L 120.50 381.00 L 120.50 401.00 L 123.50 404.00 L 123.50 413.00 L 120.00 415.50 L 106.00 415.50 L 102.00 418.50 L 99.00 418.50 L 96.50 416.00 L 96.50 409.00 L 93.50 406.00 L 93.50 389.00 L 92.00 386.50 L 83.00 386.50 L 81.50 388.00 L 81.50 398.00 L 85.50 403.00 L 85.50 416.00 L 88.50 418.00 L 88.50 429.00 L 91.50 433.00 L 103.00 433.50 L 106.00 430.50 L 113.00 430.50 L 120.00 426.50 L 125.00 426.50 L 130.50 432.00 L 130.50 439.00 L 134.50 443.00 L 134.50 450.00 L 148.50 474.00 L 148.50 477.00 L 143.00 481.50 L 139.00 481.50 L 135.00 485.50 L 132.00 485.50 L 126.00 489.50 L 121.50 487.00 L 121.50 483.00 L 118.50 481.00 L 117.50 475.00 L 114.50 473.00 L 114.50 469.00 L 111.50 467.00 L 110.50 463.00 L 102.50 465.00 L 102.50 471.00 L 105.50 474.00 L 106.50 479.00 L 109.50 482.00 L 109.50 486.00 L 112.50 489.00 L 113.50 493.00 L 116.50 495.00 L 116.50 499.00 L 120.50 503.00 L 120.50 505.00 L 128.00 503.50 L 145.00 493.50 L 149.00 489.50 L 153.00 489.50 L 162.50 500.00 L 162.50 503.00 L 169.50 509.00 L 169.50 513.00 L 180.50 524.00 L 180.50 528.00 L 184.50 532.00 L 183.00 537.50 L 166.00 548.50 L 149.50 532.00 L 149.50 528.00 L 146.00 527.50 L 141.50 532.00 L 141.50 538.00 L 151.50 548.00 L 154.50 555.00 L 166.00 566.50 L 168.00 566.50 L 184.00 553.50 L 193.00 543.50 L 197.00 543.50 L 208.00 555.50 L 214.00 557.50 L 227.00 570.50 L 231.00 570.50 L 233.50 573.00 L 233.50 578.00 L 226.50 584.00 L 225.50 589.00 L 219.00 594.50 L 207.00 589.50 L 199.00 580.50 L 195.00 580.50 L 190.50 585.00 L 190.50 587.00 L 202.00 598.50 L 207.00 599.50 L 214.00 606.50 L 224.00 611.50 L 227.50 609.00 L 227.50 604.00 L 234.50 598.00 L 234.50 594.00 L 241.50 587.00 L 241.50 583.00 L 246.00 581.50 L 248.00 584.50 L 251.00 584.50 L 256.00 588.50 L 261.00 589.50 L 262.00 591.50 L 266.00 591.50 L 270.00 595.50 L 274.00 595.50 L 284.00 602.50 L 288.00 602.50 L 289.50 607.00 L 286.50 609.00 L 286.50 613.00 L 282.50 617.00 L 282.50 621.00 L 278.00 629.50 L 275.00 629.50 L 273.00 626.50 L 268.00 625.50 L 265.00 622.50 L 262.00 622.50 L 259.00 619.50 L 253.00 617.50 L 247.50 623.00 L 248.00 627.50 L 253.00 627.50 L 270.00 637.50 L 277.00 637.50 L 281.00 641.50 L 286.00 641.50 L 287.50 640.00 L 287.50 634.00 L 291.50 629.00 L 291.50 624.00 L 294.50 621.00 L 294.50 615.00 L 300.00 609.50 L 309.00 609.50 L 314.00 613.50 L 320.00 613.50 L 324.00 616.50 L 337.00 616.50 L 346.50 622.00 L 346.50 639.00 L 343.50 642.00 L 342.50 646.00 L 339.00 647.50 L 333.00 643.50 L 320.00 643.50 L 316.00 640.50 L 314.50 642.00 L 314.50 651.00 L 323.00 651.50 L 327.00 655.50 L 341.00 655.50 L 344.00 658.50 L 354.50 658.00 L 354.50 635.00 L 360.00 623.50 L 405.00 623.50 L 406.50 625.00 L 406.50 649.00 L 405.00 650.50 L 380.00 650.50 L 378.50 652.00 L 378.50 658.00 L 383.00 661.50 L 407.50 661.00 Z M 394.00 601.50 L 385.00 601.50 L 377.00 597.50 L 375.00 593.50 L 368.00 594.50 L 364.00 590.50 L 357.00 589.50 L 350.00 585.50 L 341.00 584.50 L 311.00 566.50 L 306.00 565.50 L 297.00 559.50 L 294.00 559.50 L 270.50 543.00 L 270.50 541.00 L 274.00 538.50 L 287.00 535.50 L 291.00 532.50 L 298.00 532.50 L 305.00 528.50 L 310.00 528.50 L 322.00 521.50 L 329.50 514.00 L 330.50 502.00 L 333.50 495.00 L 333.50 484.00 L 335.50 479.00 L 321.00 463.50 L 319.00 463.50 L 316.00 467.50 L 311.00 463.50 L 302.00 463.50 L 300.50 465.00 L 302.50 475.00 L 300.50 497.00 L 298.00 499.50 L 293.00 499.50 L 291.50 497.00 L 292.50 492.00 L 287.50 489.00 L 287.50 478.00 L 284.50 475.00 L 285.50 464.00 L 281.50 457.00 L 285.50 445.00 L 285.50 426.00 L 283.00 425.50 L 281.50 429.00 L 282.50 445.00 L 279.00 446.50 L 276.50 443.00 L 276.50 424.00 L 270.50 416.00 L 269.50 412.00 L 266.00 411.50 L 258.50 425.00 L 258.50 433.00 L 269.50 445.00 L 272.50 459.00 L 275.50 462.00 L 275.50 473.00 L 272.50 475.00 L 272.50 479.00 L 265.50 489.00 L 266.50 494.00 L 259.50 491.00 L 259.50 488.00 L 266.50 482.00 L 266.50 479.00 L 245.00 471.50 L 242.50 469.00 L 242.50 466.00 L 234.50 459.00 L 235.50 442.00 L 234.50 433.00 L 231.50 426.00 L 234.50 409.00 L 237.50 406.00 L 238.50 401.00 L 245.50 392.00 L 258.50 381.00 L 256.50 377.00 L 256.50 370.00 L 227.00 369.50 L 218.00 365.50 L 206.50 351.00 L 204.50 342.00 L 205.50 334.00 L 203.50 328.00 L 195.50 317.00 L 197.50 308.00 L 195.50 300.00 L 199.50 295.00 L 199.50 288.00 L 204.50 282.00 L 205.50 273.00 L 205.50 268.00 L 203.50 267.00 L 200.50 260.00 L 208.00 254.50 L 212.00 255.50 L 212.50 282.00 L 218.50 284.00 L 219.50 291.00 L 225.50 298.00 L 230.50 308.00 L 230.50 320.00 L 224.50 328.00 L 227.50 342.00 L 232.00 345.50 L 238.00 345.50 L 241.00 348.50 L 251.50 343.00 L 251.50 341.00 L 246.50 337.00 L 241.50 329.00 L 241.50 310.00 L 231.50 300.00 L 230.50 295.00 L 231.50 285.00 L 243.50 269.00 L 238.50 262.00 L 237.50 256.00 L 234.50 251.00 L 234.50 244.00 L 231.50 239.00 L 231.50 218.00 L 234.50 214.00 L 238.50 197.00 L 248.00 185.50 L 250.00 185.50 L 259.00 177.50 L 263.00 176.50 L 269.50 170.00 L 269.50 166.00 L 263.00 161.50 L 260.00 165.50 L 255.00 165.50 L 252.00 168.50 L 244.00 168.50 L 237.00 164.50 L 231.00 164.50 L 228.00 168.50 L 226.00 168.50 L 219.50 163.00 L 220.50 154.00 L 226.00 148.50 L 232.00 148.50 L 237.00 145.50 L 243.00 137.50 L 260.00 134.50 L 265.00 134.50 L 270.00 137.50 L 276.00 137.50 L 280.00 141.50 L 287.00 141.50 L 297.50 151.00 L 300.50 156.00 L 301.50 168.00 L 299.50 180.00 L 283.00 197.50 L 275.50 202.00 L 269.50 209.00 L 269.50 212.00 L 271.00 212.50 L 288.00 198.50 L 296.00 194.50 L 301.00 194.50 L 308.00 187.50 L 314.00 185.50 L 325.00 177.50 L 335.00 176.50 L 339.00 173.50 L 355.00 175.50 L 361.50 169.00 L 361.50 164.00 L 365.50 156.00 L 361.50 149.00 L 351.50 138.00 L 351.50 128.00 L 347.50 124.00 L 345.50 117.00 L 347.50 112.00 L 356.00 106.50 L 363.00 106.50 L 366.00 109.50 L 376.00 110.50 L 381.50 115.00 L 389.50 126.00 L 389.50 148.00 L 390.50 159.00 L 392.50 162.00 L 392.50 169.00 L 389.50 178.00 L 391.00 180.50 L 393.00 180.50 L 397.00 176.50 L 400.00 177.50 L 408.00 173.50 L 416.00 172.50 L 421.00 174.50 L 444.00 173.50 L 447.00 175.50 L 460.00 176.50 L 468.00 167.50 L 473.00 166.50 L 478.00 162.50 L 487.00 159.50 L 510.00 159.50 L 530.00 167.50 L 543.00 176.50 L 546.00 175.50 L 553.00 177.50 L 561.50 186.00 L 562.50 198.00 L 565.50 200.00 L 566.50 206.00 L 572.50 212.00 L 571.50 223.00 L 573.50 229.00 L 572.00 229.50 L 562.50 224.00 L 561.50 222.00 L 566.50 218.00 L 567.50 212.00 L 560.50 204.00 L 560.50 202.00 L 556.50 199.00 L 556.50 192.00 L 549.00 183.50 L 544.00 181.50 L 537.00 182.50 L 531.00 176.50 L 526.00 177.50 L 524.00 175.50 L 515.00 175.50 L 506.00 169.50 L 497.00 169.50 L 493.00 165.50 L 487.00 169.50 L 483.00 169.50 L 475.50 175.00 L 473.50 187.00 L 468.00 189.50 L 466.50 195.00 L 462.50 198.00 L 463.50 206.00 L 460.50 210.00 L 461.50 217.00 L 459.50 220.00 L 462.50 226.00 L 457.50 236.00 L 457.50 251.00 L 444.00 257.50 L 442.50 261.00 L 438.00 263.50 L 435.00 263.50 L 433.00 261.50 L 427.00 263.50 L 416.00 258.50 L 404.50 261.00 L 407.00 264.50 L 418.00 268.50 L 421.00 273.50 L 426.00 271.50 L 432.00 275.50 L 435.00 275.50 L 441.00 271.50 L 448.00 271.50 L 456.00 264.50 L 459.00 265.50 L 461.50 259.00 L 466.50 256.00 L 466.50 246.00 L 470.50 243.00 L 470.50 240.00 L 467.50 237.00 L 470.50 232.00 L 467.50 224.00 L 470.50 221.00 L 468.50 214.00 L 471.50 211.00 L 471.50 196.00 L 475.00 194.50 L 477.50 190.00 L 488.00 180.50 L 492.00 180.50 L 495.00 177.50 L 500.00 177.50 L 503.00 180.50 L 515.00 180.50 L 525.00 187.50 L 528.00 187.50 L 530.50 190.00 L 530.50 204.00 L 537.00 208.50 L 543.00 209.50 L 545.00 212.50 L 550.00 212.50 L 551.50 214.00 L 550.00 217.50 L 546.00 217.50 L 543.00 214.50 L 538.00 214.50 L 529.00 207.50 L 526.00 207.50 L 523.50 203.00 L 523.50 195.00 L 515.00 189.50 L 503.00 187.50 L 492.00 189.50 L 488.50 194.00 L 494.50 201.00 L 497.50 211.00 L 506.00 215.50 L 510.00 215.50 L 514.00 219.50 L 517.00 219.50 L 526.50 234.00 L 526.50 241.00 L 530.50 248.00 L 530.50 254.00 L 526.50 261.00 L 526.50 291.00 L 523.50 297.00 L 526.50 301.00 L 526.50 305.00 L 530.50 310.00 L 530.50 315.00 L 532.00 315.50 L 534.50 312.00 L 535.50 304.00 L 538.50 294.00 L 541.50 291.00 L 542.50 285.00 L 555.00 272.50 L 560.00 271.50 L 562.00 268.50 L 568.00 267.50 L 573.50 263.00 L 574.00 259.50 L 579.00 258.50 L 582.00 254.50 L 588.00 254.50 L 592.50 262.00 L 591.00 263.50 L 585.00 263.50 L 581.00 260.50 L 575.50 270.00 L 575.50 275.00 L 567.00 279.50 L 563.50 285.00 L 549.50 298.00 L 544.50 309.00 L 544.50 316.00 L 540.50 321.00 L 540.50 327.00 L 534.50 333.00 L 533.50 342.00 L 524.00 347.50 L 520.00 347.50 L 518.00 351.50 L 506.00 351.50 L 503.00 347.50 L 498.00 347.50 L 496.50 342.00 L 490.50 338.00 L 489.50 329.00 L 485.50 325.00 L 485.50 319.00 L 488.50 315.00 L 485.50 311.00 L 485.50 309.00 L 488.50 307.00 L 485.50 295.00 L 485.50 282.00 L 471.00 268.50 L 469.50 270.00 L 470.50 275.00 L 475.00 275.50 L 480.50 283.00 L 478.50 290.00 L 480.50 294.00 L 480.50 319.00 L 477.50 321.00 L 477.50 323.00 L 483.50 332.00 L 483.50 337.00 L 486.50 340.00 L 487.50 344.00 L 500.00 353.50 L 506.00 353.50 L 510.00 356.50 L 517.00 357.50 L 519.00 354.50 L 524.00 354.50 L 527.00 351.50 L 534.00 349.50 L 535.50 344.00 L 541.50 339.00 L 543.00 335.50 L 546.50 334.00 L 545.50 330.00 L 547.50 322.00 L 552.50 321.00 L 552.50 312.00 L 555.50 309.00 L 556.50 298.00 L 565.00 289.50 L 568.00 289.50 L 572.00 283.50 L 577.00 284.50 L 583.00 282.50 L 587.00 285.50 L 588.50 281.00 L 594.00 276.50 L 600.00 277.50 L 604.00 272.50 L 608.00 273.50 L 611.00 268.50 L 615.50 267.00 L 616.50 261.00 L 612.00 256.50 L 601.00 260.50 L 597.50 258.00 L 599.00 254.50 L 613.00 252.50 L 619.00 258.50 L 622.00 258.50 L 633.00 256.50 L 638.00 257.50 L 638.50 254.00 L 640.00 253.50 L 641.50 257.00 L 646.50 260.00 L 645.00 263.50 L 623.00 263.50 L 620.00 269.50 L 617.00 269.50 L 613.00 274.50 L 609.00 274.50 L 605.00 279.50 L 600.50 282.00 L 599.00 285.50 L 588.00 289.50 L 580.00 287.50 L 577.00 291.50 L 574.00 291.50 L 561.50 306.00 L 561.50 310.00 L 558.50 315.00 L 558.50 321.00 L 555.50 327.00 L 555.50 333.00 L 551.50 338.00 L 548.50 347.00 L 537.50 359.00 L 538.00 363.50 L 541.00 363.50 L 545.00 367.50 L 553.00 369.50 L 556.00 373.50 L 564.00 377.50 L 569.50 383.00 L 572.50 392.00 L 572.50 414.00 L 569.50 420.00 L 569.50 427.00 L 565.50 430.00 L 565.50 437.00 L 562.50 440.00 L 560.50 446.00 L 552.00 453.50 L 543.00 454.50 L 534.00 461.50 L 527.00 461.50 L 523.50 476.00 L 521.00 478.50 L 516.50 477.00 L 515.50 474.00 L 517.50 471.00 L 517.50 464.00 L 520.50 460.00 L 517.50 450.00 L 526.50 435.00 L 527.50 429.00 L 538.00 419.50 L 548.50 413.00 L 548.50 406.00 L 542.50 396.00 L 536.00 390.50 L 531.00 387.50 L 525.00 386.50 L 522.00 383.50 L 516.00 383.50 L 515.50 388.00 L 510.50 396.00 L 510.50 402.00 L 505.50 410.00 L 505.50 416.00 L 502.50 421.00 L 505.50 428.00 L 505.50 437.00 L 509.50 442.00 L 509.50 462.00 L 502.50 469.00 L 498.50 484.00 L 494.50 488.00 L 494.50 500.00 L 490.00 501.50 L 487.00 507.50 L 484.00 507.50 L 478.50 501.00 L 476.50 496.00 L 478.50 490.00 L 478.50 477.00 L 481.50 472.00 L 478.00 472.50 L 476.50 471.00 L 474.50 467.00 L 474.50 460.00 L 471.00 452.50 L 467.50 456.00 L 464.50 463.00 L 462.00 463.50 L 456.50 470.00 L 455.50 489.00 L 449.50 505.00 L 450.50 527.00 L 458.00 534.50 L 472.00 539.50 L 475.00 542.50 L 482.00 543.50 L 485.50 548.00 L 484.50 551.00 L 475.00 559.50 L 460.00 567.50 L 443.00 579.50 L 437.00 581.50 L 436.00 583.50 L 424.00 587.50 L 414.00 593.50 L 407.00 594.50 L 405.00 597.50 L 400.00 597.50 L 394.00 601.50 Z M 375.50 183.00 L 378.50 180.00 L 378.50 174.00 L 381.50 170.00 L 380.50 167.00 L 381.50 162.00 L 379.50 159.00 L 379.50 154.00 L 381.50 153.00 L 379.50 149.00 L 380.50 137.00 L 376.00 137.50 L 373.00 135.50 L 370.50 129.00 L 372.00 127.50 L 377.00 127.50 L 379.50 130.00 L 381.00 134.50 L 382.50 134.00 L 382.50 129.00 L 379.50 124.00 L 376.50 122.00 L 375.00 117.50 L 367.00 117.50 L 359.00 112.50 L 354.00 112.50 L 352.50 117.00 L 356.50 124.00 L 356.50 129.00 L 359.50 132.00 L 360.50 137.00 L 364.50 140.00 L 364.50 142.00 L 368.00 145.50 L 371.00 145.50 L 377.50 150.00 L 377.50 154.00 L 375.50 155.00 L 375.50 157.00 L 378.50 160.00 L 378.50 163.00 L 375.50 166.00 L 377.50 170.00 L 372.50 174.00 L 369.50 179.00 L 369.50 181.00 L 372.00 183.50 L 375.50 183.00 Z M 292.50 275.00 L 302.00 271.50 L 303.50 268.00 L 299.00 266.50 L 287.00 267.50 L 282.00 263.50 L 274.00 263.50 L 273.00 261.50 L 268.00 260.50 L 265.50 254.00 L 263.00 253.50 L 255.50 245.00 L 254.50 237.00 L 257.50 224.00 L 256.50 218.00 L 260.50 213.00 L 260.50 210.00 L 265.50 208.00 L 265.50 202.00 L 269.50 197.00 L 280.00 190.50 L 282.50 186.00 L 287.50 183.00 L 287.50 178.00 L 291.50 175.00 L 292.50 171.00 L 292.50 160.00 L 287.00 151.50 L 282.00 150.50 L 276.00 144.50 L 269.00 144.50 L 266.00 141.50 L 260.00 141.50 L 260.50 146.00 L 250.00 151.50 L 246.50 149.00 L 247.50 146.00 L 245.00 145.50 L 241.00 151.50 L 236.00 151.50 L 233.00 154.50 L 228.00 155.50 L 226.50 157.00 L 227.00 161.50 L 229.00 161.50 L 230.00 159.50 L 253.00 161.50 L 255.00 159.50 L 259.00 159.50 L 268.00 151.50 L 271.00 151.50 L 275.50 158.00 L 275.50 161.00 L 279.50 164.00 L 278.50 175.00 L 275.50 176.00 L 275.50 181.00 L 270.00 182.50 L 268.00 185.50 L 263.00 187.50 L 261.00 193.50 L 254.00 193.50 L 253.50 201.00 L 247.50 205.00 L 247.50 211.00 L 250.50 214.00 L 246.50 218.00 L 248.50 223.00 L 244.50 226.00 L 245.50 229.00 L 250.50 232.00 L 246.50 236.00 L 247.50 243.00 L 254.50 250.00 L 253.50 257.00 L 261.00 259.50 L 262.50 266.00 L 269.00 271.50 L 281.00 271.50 L 283.00 274.50 L 287.00 272.50 L 290.00 275.50 L 292.50 275.00 Z M 202.00 179.50 L 196.50 178.00 L 195.50 169.00 L 197.00 167.50 L 201.00 167.50 L 202.00 169.50 L 207.00 169.50 L 212.00 164.50 L 214.00 164.50 L 208.50 175.00 L 206.00 175.50 L 202.00 179.50 Z M 388.50 199.00 L 396.00 194.50 L 407.00 193.50 L 416.00 187.50 L 421.00 187.50 L 424.00 189.50 L 429.00 187.50 L 430.00 188.50 L 439.00 187.50 L 446.00 191.50 L 450.00 191.50 L 453.50 189.00 L 454.50 185.00 L 451.00 184.50 L 450.00 185.50 L 446.00 183.50 L 425.00 182.50 L 424.00 183.50 L 410.00 184.50 L 407.00 188.50 L 400.00 186.50 L 397.00 189.50 L 394.00 189.50 L 389.00 192.50 L 384.50 197.00 L 385.00 199.50 L 388.50 199.00 Z M 301.50 225.00 L 302.50 221.00 L 308.00 215.50 L 310.00 215.50 L 318.00 208.50 L 321.00 207.50 L 322.00 205.50 L 325.00 205.50 L 332.00 199.50 L 337.00 197.50 L 346.00 197.50 L 348.00 195.50 L 353.00 195.50 L 354.00 194.50 L 365.00 194.50 L 365.50 193.00 L 360.00 189.50 L 359.00 187.50 L 357.00 187.50 L 351.00 191.50 L 346.00 190.50 L 343.00 193.50 L 338.00 193.50 L 336.00 190.50 L 334.00 190.50 L 332.00 193.50 L 329.00 193.50 L 325.00 197.50 L 322.00 197.50 L 319.00 200.50 L 315.00 200.50 L 312.50 202.00 L 310.50 208.00 L 300.50 216.00 L 300.50 220.00 L 296.50 223.00 L 298.00 225.50 L 301.50 225.00 Z M 550.00 199.50 L 547.00 199.50 L 544.00 194.50 L 538.50 192.00 L 538.50 189.00 L 540.00 187.50 L 544.00 187.50 L 547.00 191.50 L 550.50 192.00 L 551.50 198.00 L 550.00 199.50 Z M 305.50 257.00 L 315.50 247.00 L 316.50 241.00 L 319.50 239.00 L 319.50 234.00 L 322.00 231.50 L 325.00 233.50 L 330.50 229.00 L 332.00 223.50 L 338.00 223.50 L 350.00 216.50 L 354.00 218.50 L 359.00 215.50 L 362.00 215.50 L 364.00 217.50 L 369.00 216.50 L 372.00 219.50 L 376.00 219.50 L 379.00 222.50 L 390.00 225.50 L 394.00 229.50 L 399.00 229.50 L 399.50 228.00 L 396.00 221.50 L 392.00 221.50 L 389.00 218.50 L 383.00 217.50 L 378.00 211.50 L 367.00 211.50 L 366.00 213.50 L 356.00 209.50 L 352.00 213.50 L 344.00 211.50 L 339.00 215.50 L 334.00 215.50 L 330.00 221.50 L 323.00 221.50 L 314.50 230.00 L 313.50 236.00 L 307.50 240.00 L 307.50 245.00 L 305.00 246.50 L 300.50 246.00 L 300.50 250.00 L 297.50 255.00 L 300.00 257.50 L 305.50 257.00 Z M 416.50 219.00 L 421.00 215.50 L 427.00 215.50 L 431.00 212.50 L 443.00 212.50 L 443.50 211.00 L 441.00 209.50 L 437.00 210.50 L 430.00 209.50 L 427.00 211.50 L 424.00 211.50 L 422.00 213.50 L 418.00 213.50 L 414.00 215.50 L 413.50 219.00 L 416.50 219.00 Z M 490.50 240.00 L 494.50 239.00 L 492.50 236.00 L 492.50 223.00 L 488.50 219.00 L 489.50 217.00 L 488.50 213.00 L 486.00 212.50 L 485.50 219.00 L 487.50 220.00 L 488.50 240.00 L 490.50 240.00 Z M 557.00 221.50 L 553.50 221.00 L 552.50 218.00 L 554.00 216.50 L 557.00 216.50 L 558.50 218.00 L 557.00 221.50 Z M 520.50 254.00 L 519.50 251.00 L 520.50 247.00 L 518.50 245.00 L 518.50 236.00 L 510.00 229.50 L 509.50 233.00 L 514.50 239.00 L 515.50 242.00 L 515.50 251.00 L 518.00 254.50 L 520.50 254.00 Z M 363.50 264.00 L 367.00 261.50 L 372.00 261.50 L 377.00 257.50 L 384.00 257.50 L 388.00 253.50 L 393.00 253.50 L 394.00 251.50 L 401.00 251.50 L 405.00 247.50 L 412.00 247.50 L 417.00 243.50 L 428.00 243.50 L 433.00 239.50 L 437.00 241.50 L 444.00 240.50 L 446.50 239.00 L 446.50 236.00 L 441.00 232.50 L 434.00 232.50 L 422.00 236.50 L 414.00 236.50 L 413.00 237.50 L 404.00 236.50 L 401.00 238.50 L 398.00 238.50 L 394.00 241.50 L 386.00 242.50 L 383.00 245.50 L 379.00 246.50 L 372.00 252.50 L 365.00 256.50 L 359.50 262.00 L 360.00 264.50 L 363.50 264.00 Z M 269.50 349.00 L 272.50 344.00 L 273.50 338.00 L 276.00 335.50 L 279.50 335.00 L 278.50 330.00 L 281.50 327.00 L 280.50 323.00 L 286.50 319.00 L 291.50 306.00 L 297.50 302.00 L 298.50 298.00 L 304.00 296.50 L 321.00 281.50 L 325.00 281.50 L 331.00 275.50 L 335.00 275.50 L 335.00 269.50 L 339.00 268.50 L 341.50 264.00 L 346.00 261.50 L 350.00 262.50 L 361.50 251.00 L 361.50 246.00 L 364.00 243.50 L 368.00 243.50 L 373.00 239.50 L 377.00 239.50 L 380.50 237.00 L 380.00 233.50 L 378.00 233.50 L 377.00 235.50 L 372.00 234.50 L 369.00 237.50 L 364.00 237.50 L 356.00 245.50 L 351.00 245.50 L 350.50 248.00 L 346.50 250.00 L 346.50 254.00 L 344.00 256.50 L 338.50 258.00 L 338.50 262.00 L 335.00 265.50 L 327.50 266.00 L 328.50 273.00 L 327.00 274.50 L 323.00 274.50 L 317.00 279.50 L 312.00 279.50 L 310.00 287.50 L 305.00 288.50 L 301.00 291.50 L 299.00 289.50 L 295.50 290.00 L 294.50 298.00 L 291.00 299.50 L 287.00 305.50 L 283.50 306.00 L 281.50 315.00 L 277.00 316.50 L 272.50 321.00 L 272.50 325.00 L 268.50 329.00 L 268.50 337.00 L 265.50 338.00 L 265.50 349.00 L 269.50 349.00 Z M 580.00 248.50 L 579.00 247.50 L 571.50 247.00 L 574.00 240.50 L 577.00 239.50 L 579.50 241.00 L 581.50 246.00 L 580.00 248.50 Z M 595.00 255.50 L 591.00 255.50 L 588.50 254.00 L 594.00 251.50 L 596.50 254.00 L 595.00 255.50 Z M 517.50 291.00 L 518.50 288.00 L 514.50 283.00 L 515.50 278.00 L 512.50 276.00 L 510.50 270.00 L 510.50 264.00 L 509.00 262.50 L 505.00 259.50 L 503.00 259.50 L 497.00 253.50 L 494.00 255.50 L 491.00 255.50 L 489.00 253.50 L 487.00 253.50 L 485.00 255.50 L 477.50 256.00 L 478.00 258.50 L 498.00 259.50 L 503.50 268.00 L 502.50 271.00 L 507.00 272.50 L 508.50 274.00 L 509.50 279.00 L 511.50 280.00 L 511.50 283.00 L 509.50 287.00 L 511.00 287.50 L 513.00 285.50 L 515.00 285.50 L 515.50 288.00 L 513.00 288.50 L 512.50 290.00 L 515.00 291.50 L 517.50 291.00 Z M 419.50 283.00 L 419.00 281.50 L 417.00 281.50 L 411.00 277.50 L 408.00 277.50 L 405.00 274.50 L 400.00 274.50 L 395.00 268.50 L 387.50 272.00 L 390.00 275.50 L 394.00 275.50 L 396.00 277.50 L 402.00 277.50 L 408.00 281.50 L 413.00 281.50 L 416.00 283.50 L 419.50 283.00 Z M 336.50 306.00 L 339.00 303.50 L 341.00 303.50 L 348.00 299.50 L 353.00 299.50 L 355.50 294.00 L 361.50 289.00 L 361.50 286.00 L 363.50 282.00 L 361.00 281.50 L 353.50 289.00 L 351.00 293.50 L 347.00 295.50 L 342.00 295.50 L 337.00 299.50 L 330.00 299.50 L 325.00 295.50 L 314.00 295.50 L 313.50 297.00 L 316.00 298.50 L 327.00 301.50 L 330.00 306.50 L 336.50 306.00 Z M 214.50 332.00 L 216.50 331.00 L 217.50 326.00 L 219.50 325.00 L 220.50 322.00 L 223.50 319.00 L 223.50 313.00 L 217.50 307.00 L 219.50 304.00 L 219.50 301.00 L 216.50 299.00 L 213.50 290.00 L 210.00 287.50 L 204.50 290.00 L 205.50 297.00 L 202.50 300.00 L 199.50 307.00 L 202.00 307.50 L 204.50 310.00 L 204.50 312.00 L 202.50 314.00 L 202.50 317.00 L 208.50 324.00 L 208.50 330.00 L 210.00 331.50 L 214.50 332.00 Z M 469.50 302.00 L 471.50 299.00 L 470.00 295.50 L 458.00 295.50 L 455.00 293.50 L 450.00 293.50 L 442.00 290.50 L 436.50 292.00 L 439.00 296.50 L 447.00 296.50 L 449.00 299.50 L 454.00 299.50 L 456.00 301.50 L 462.00 299.50 L 465.00 301.50 L 469.50 302.00 Z M 399.50 327.00 L 406.50 321.00 L 407.50 317.00 L 411.50 313.00 L 411.50 310.00 L 407.50 306.00 L 407.50 301.00 L 403.00 295.50 L 399.00 295.50 L 395.00 292.50 L 388.00 291.50 L 381.00 295.50 L 375.50 303.00 L 375.50 317.00 L 386.00 327.50 L 399.50 327.00 Z M 419.50 311.00 L 423.00 310.50 L 426.50 306.00 L 422.00 303.50 L 419.00 299.50 L 416.00 299.50 L 416.50 310.00 L 418.00 311.50 L 419.50 311.00 Z M 367.50 315.00 L 369.50 313.00 L 369.00 309.50 L 365.50 313.00 L 365.50 315.00 L 367.50 315.00 Z M 398.50 485.00 L 419.00 482.50 L 423.00 479.50 L 429.00 478.50 L 432.00 475.50 L 439.00 474.50 L 445.00 469.50 L 449.00 468.50 L 456.50 461.00 L 463.50 448.00 L 466.50 438.00 L 466.00 419.50 L 463.50 420.00 L 451.00 437.50 L 447.50 437.00 L 446.50 432.00 L 460.50 415.00 L 461.50 410.00 L 471.50 399.00 L 471.50 378.00 L 467.50 368.00 L 466.50 342.00 L 458.00 337.50 L 452.00 331.50 L 446.00 330.50 L 441.00 327.50 L 432.00 327.50 L 430.00 329.50 L 421.00 330.50 L 415.50 329.00 L 415.50 326.00 L 419.00 321.50 L 445.00 320.50 L 457.00 325.50 L 464.00 333.50 L 460.50 325.00 L 461.50 318.00 L 460.00 313.50 L 447.00 313.50 L 441.00 309.50 L 437.00 309.50 L 431.00 313.50 L 426.00 313.50 L 420.00 317.50 L 416.50 323.00 L 408.00 330.50 L 398.50 336.00 L 398.50 339.00 L 396.50 341.00 L 396.50 348.00 L 394.00 351.50 L 392.00 351.50 L 389.50 348.00 L 389.50 342.00 L 386.50 335.00 L 382.00 334.50 L 374.00 326.50 L 371.00 325.50 L 367.00 319.50 L 363.00 316.50 L 357.00 315.50 L 348.00 316.50 L 342.00 319.50 L 342.00 321.50 L 360.00 321.50 L 364.00 324.50 L 370.00 325.50 L 370.50 329.00 L 368.00 331.50 L 353.00 329.50 L 334.00 330.50 L 324.00 337.50 L 314.50 350.00 L 314.50 362.00 L 311.50 366.00 L 310.50 371.00 L 311.50 397.00 L 321.50 412.00 L 321.50 415.00 L 328.50 423.00 L 329.50 429.00 L 332.50 434.00 L 332.50 441.00 L 329.00 443.50 L 326.50 441.00 L 326.50 433.00 L 322.50 429.00 L 318.50 421.00 L 315.50 420.00 L 315.50 429.00 L 318.50 435.00 L 318.50 444.00 L 322.50 453.00 L 334.00 465.50 L 336.00 465.50 L 355.00 479.50 L 359.00 479.50 L 365.00 483.50 L 379.00 483.50 L 384.00 485.50 L 398.50 485.00 Z M 448.00 365.50 L 445.00 365.50 L 442.00 362.50 L 435.00 362.50 L 428.00 358.50 L 418.00 358.50 L 417.00 359.50 L 409.00 358.50 L 406.50 356.00 L 407.50 347.00 L 415.00 341.50 L 416.00 339.50 L 423.00 335.50 L 438.00 335.50 L 442.00 338.50 L 445.00 338.50 L 451.00 342.50 L 459.50 351.00 L 459.50 357.00 L 448.00 365.50 Z M 342.00 365.50 L 328.00 365.50 L 325.00 362.50 L 319.50 361.00 L 321.50 351.00 L 331.00 342.50 L 343.00 338.50 L 363.00 338.50 L 371.00 344.50 L 376.00 342.50 L 382.50 348.00 L 383.50 357.00 L 381.00 358.50 L 377.50 357.00 L 376.50 351.00 L 373.00 347.50 L 374.50 356.00 L 370.00 361.50 L 367.00 362.50 L 365.00 361.50 L 346.00 362.50 L 342.00 365.50 Z M 234.50 362.00 L 236.00 360.50 L 242.00 361.50 L 243.00 359.50 L 248.00 359.50 L 250.00 361.50 L 252.00 361.50 L 254.00 359.50 L 262.00 359.50 L 262.50 352.00 L 260.00 349.50 L 258.00 349.50 L 252.00 353.50 L 239.00 355.50 L 236.00 352.50 L 229.00 351.50 L 226.00 345.50 L 218.00 342.50 L 215.50 347.00 L 220.50 355.00 L 226.00 355.50 L 229.50 358.00 L 231.00 361.50 L 234.50 362.00 Z M 292.50 405.00 L 292.50 364.00 L 290.00 362.50 L 288.50 365.00 L 288.50 404.00 L 290.00 405.50 L 292.50 405.00 Z M 485.50 404.00 L 485.50 390.00 L 488.50 383.00 L 488.50 377.00 L 486.50 374.00 L 486.00 365.50 L 484.50 366.00 L 484.50 370.00 L 480.50 374.00 L 480.50 397.00 L 483.50 404.00 L 485.50 404.00 Z M 534.50 454.00 L 541.00 447.50 L 549.00 447.50 L 555.50 441.00 L 556.50 432.00 L 560.50 427.00 L 560.50 422.00 L 562.50 419.00 L 562.50 402.00 L 560.50 392.00 L 550.00 381.50 L 531.00 369.50 L 524.00 369.50 L 524.00 372.50 L 531.00 374.50 L 539.00 382.50 L 542.00 381.50 L 544.50 387.00 L 549.00 391.50 L 554.50 393.00 L 552.50 401.00 L 557.50 407.00 L 553.50 421.00 L 549.00 421.50 L 538.00 428.50 L 533.50 434.00 L 533.50 438.00 L 526.50 447.00 L 525.50 453.00 L 527.00 454.50 L 534.50 454.00 Z M 381.00 386.50 L 378.00 386.50 L 375.50 384.00 L 375.50 382.00 L 378.00 378.50 L 381.50 380.00 L 381.00 386.50 Z M 246.50 428.00 L 246.50 422.00 L 248.50 419.00 L 245.50 415.00 L 247.00 413.50 L 252.00 414.50 L 251.50 410.00 L 256.50 404.00 L 256.50 401.00 L 260.00 398.50 L 262.00 398.50 L 265.00 395.50 L 268.00 395.50 L 270.50 393.00 L 270.50 388.00 L 267.00 384.50 L 264.00 384.50 L 259.00 390.50 L 251.50 395.00 L 251.50 399.00 L 246.50 403.00 L 246.50 406.00 L 240.50 415.00 L 241.50 418.00 L 240.50 422.00 L 243.50 425.00 L 243.50 427.00 L 245.00 428.50 L 246.50 428.00 Z M 414.00 401.50 L 411.00 401.50 L 410.00 397.50 L 406.00 400.50 L 400.00 400.50 L 397.50 399.00 L 395.50 394.00 L 397.00 391.50 L 399.00 391.50 L 401.00 389.50 L 405.00 389.50 L 410.00 394.50 L 411.50 394.00 L 413.00 390.50 L 415.00 390.50 L 417.50 393.00 L 417.50 399.00 L 414.00 401.50 Z M 370.00 401.50 L 368.00 401.50 L 365.50 399.00 L 365.50 392.00 L 367.00 390.50 L 369.00 390.50 L 371.00 392.50 L 384.00 391.50 L 385.50 393.00 L 384.50 397.00 L 380.00 400.50 L 378.00 400.50 L 375.00 397.50 L 372.00 396.50 L 371.50 400.00 L 370.00 401.50 Z M 497.50 409.00 L 498.50 407.00 L 498.00 400.50 L 495.50 402.00 L 495.50 409.00 L 497.50 409.00 Z M 403.00 446.50 L 376.00 446.50 L 363.00 439.50 L 361.50 437.00 L 361.50 432.00 L 372.00 422.50 L 374.00 422.50 L 381.00 416.50 L 405.00 416.50 L 416.00 423.50 L 422.50 432.00 L 422.50 434.00 L 419.00 439.50 L 412.00 443.50 L 409.00 443.50 L 407.00 445.50 L 403.00 446.50 Z M 487.50 453.00 L 489.50 445.00 L 489.50 428.00 L 488.50 427.00 L 489.50 424.00 L 488.00 422.50 L 485.50 424.00 L 484.50 427.00 L 484.50 451.00 L 486.00 453.50 L 487.50 453.00 Z M 266.50 473.00 L 269.50 472.00 L 269.50 464.00 L 266.50 461.00 L 266.50 454.00 L 263.50 451.00 L 261.50 446.00 L 255.00 439.50 L 252.00 438.50 L 249.00 435.50 L 247.00 435.50 L 245.50 432.00 L 242.00 429.50 L 240.50 432.00 L 242.50 435.00 L 242.50 440.00 L 239.50 444.00 L 239.50 447.00 L 241.00 448.50 L 246.00 447.50 L 251.50 453.00 L 252.50 458.00 L 251.00 459.50 L 248.00 459.50 L 242.00 453.50 L 240.50 454.00 L 240.50 457.00 L 243.50 459.00 L 245.00 464.50 L 252.00 465.50 L 256.00 469.50 L 258.00 468.50 L 261.00 469.50 L 265.00 473.50 L 266.50 473.00 Z M 298.50 449.00 L 298.50 446.00 L 300.50 443.00 L 300.50 434.00 L 297.00 430.50 L 296.50 449.00 L 298.50 449.00 Z M 540.00 441.50 L 537.00 441.50 L 536.50 440.00 L 541.00 433.50 L 546.00 430.50 L 549.00 430.50 L 551.50 433.00 L 550.50 437.00 L 548.00 439.50 L 540.00 441.50 Z M 501.50 458.00 L 503.50 454.00 L 503.00 443.50 L 498.50 448.00 L 498.50 457.00 L 500.00 458.50 L 501.50 458.00 Z M 392.50 595.00 L 397.00 591.50 L 401.00 591.50 L 413.00 585.50 L 416.00 585.50 L 420.00 581.50 L 424.00 581.50 L 429.00 577.50 L 433.00 577.50 L 452.00 564.50 L 456.00 563.50 L 472.50 551.00 L 472.00 548.50 L 461.00 545.50 L 454.00 541.50 L 447.50 535.00 L 443.50 528.00 L 442.50 504.00 L 446.50 498.00 L 446.00 478.50 L 443.00 478.50 L 441.00 481.50 L 437.00 481.50 L 432.00 485.50 L 429.00 485.50 L 421.00 492.50 L 410.00 493.50 L 395.00 503.50 L 376.00 503.50 L 374.00 505.50 L 370.00 505.50 L 368.00 503.50 L 357.00 503.50 L 346.00 495.50 L 342.00 495.50 L 340.50 497.00 L 339.50 512.00 L 335.50 520.00 L 329.00 527.50 L 326.00 527.50 L 321.00 531.50 L 317.00 531.50 L 307.00 537.50 L 301.00 538.50 L 298.00 541.50 L 288.00 541.50 L 286.50 543.00 L 287.00 545.50 L 291.00 546.50 L 310.00 559.50 L 320.00 563.50 L 330.00 570.50 L 335.00 571.50 L 343.00 577.50 L 348.00 577.50 L 351.00 581.50 L 358.00 581.50 L 361.00 585.50 L 366.00 585.50 L 369.00 588.50 L 381.00 591.50 L 385.00 595.50 L 392.50 595.00 Z"/>
  </g>
</svg>
